<svg xmlns="http://www.w3.org/2000/svg" xmlns:xlink="http://www.w3.org/1999/xlink" contentStyleType="text/css" data-diagram-type="DESCRIPTION" height="882px" preserveAspectRatio="none" style="width:988px;height:882px;background:#FFFFFF;" version="1.1" viewBox="0 0 988 882" width="988px" zoomAndPan="magnify"><defs/><g><!--cluster Test Code--><g id="cluster_Test Code"><path d="M525.5,4 L604.8535,4 A3.75,3.75 0 0 1 607.3535,6.5 L614.3535,26.2969 L978.5,26.2969 A2.5,2.5 0 0 1 981,28.7969 L981,89.5 A2.5,2.5 0 0 1 978.5,92 L525.5,92 A2.5,2.5 0 0 1 523,89.5 L523,6.5 A2.5,2.5 0 0 1 525.5,4 " fill="transparent" style="stroke:#000000;stroke-width:1.5;"/><line style="stroke:#000000;stroke-width:1.5;" x1="523" x2="614.3535" y1="26.2969" y2="26.2969"/><text fill="#000000" font-family="sans-serif" font-size="14" font-weight="bold" lengthAdjust="spacing" textLength="78.3535" x="527" y="18.9951">Test Code</text></g><!--cluster ITF Core  (score.itf.plugins.core)--><g id="cluster_ITF Core  (score.itf.plugins.core)"><path d="M382.5,129 L639.9434,129 A3.75,3.75 0 0 1 642.4434,131.5 L649.4434,151.2969 L649.5,151.2969 A2.5,2.5 0 0 1 652,153.7969 L652,305.5 A2.5,2.5 0 0 1 649.5,308 L382.5,308 A2.5,2.5 0 0 1 380,305.5 L380,131.5 A2.5,2.5 0 0 1 382.5,129 " fill="transparent" style="stroke:#000000;stroke-width:1.5;"/><line style="stroke:#000000;stroke-width:1.5;" x1="380" x2="649.4434" y1="151.2969" y2="151.2969"/><text fill="#000000" font-family="sans-serif" font-size="14" font-weight="bold" lengthAdjust="spacing" textLength="256.4434" x="384" y="143.9951">ITF Core  (score.itf.plugins.core)</text></g><!--cluster Target Abstraction--><g id="cluster_Target Abstraction"><path d="M16.5,360 L166.0928,360 A3.75,3.75 0 0 1 168.5928,362.5 L175.5928,382.2969 L235.5,382.2969 A2.5,2.5 0 0 1 238,384.7969 L238,542.5 A2.5,2.5 0 0 1 235.5,545 L16.5,545 A2.5,2.5 0 0 1 14,542.5 L14,362.5 A2.5,2.5 0 0 1 16.5,360 " fill="transparent" style="stroke:#000000;stroke-width:1.5;"/><line style="stroke:#000000;stroke-width:1.5;" x1="14" x2="175.5928" y1="382.2969" y2="382.2969"/><text fill="#000000" font-family="sans-serif" font-size="14" font-weight="bold" lengthAdjust="spacing" textLength="148.5928" x="18" y="374.9951">Target Abstraction</text></g><!--cluster Plugins--><g id="cluster_Plugins"><path d="M45.5,620 L104.6465,620 A3.75,3.75 0 0 1 107.1465,622.5 L114.1465,642.2969 L544.5,642.2969 A2.5,2.5 0 0 1 547,644.7969 L547,753.5 A2.5,2.5 0 0 1 544.5,756 L45.5,756 A2.5,2.5 0 0 1 43,753.5 L43,622.5 A2.5,2.5 0 0 1 45.5,620 " fill="transparent" style="stroke:#000000;stroke-width:1.5;"/><line style="stroke:#000000;stroke-width:1.5;" x1="43" x2="114.1465" y1="642.2969" y2="642.2969"/><text fill="#000000" font-family="sans-serif" font-size="14" font-weight="bold" lengthAdjust="spacing" textLength="58.1465" x="47" y="634.9951">Plugins</text></g><!--cluster Infrastructure--><g id="cluster_Infrastructure"><path d="M68.5,793 L180.3721,793 A3.75,3.75 0 0 1 182.8721,795.5 L189.8721,815.2969 L319.5,815.2969 A2.5,2.5 0 0 1 322,817.7969 L322,870.5 A2.5,2.5 0 0 1 319.5,873 L68.5,873 A2.5,2.5 0 0 1 66,870.5 L66,795.5 A2.5,2.5 0 0 1 68.5,793 " fill="transparent" style="stroke:#000000;stroke-width:1.5;"/><line style="stroke:#000000;stroke-width:1.5;" x1="66" x2="189.8721" y1="815.2969" y2="815.2969"/><text fill="#000000" font-family="sans-serif" font-size="14" font-weight="bold" lengthAdjust="spacing" textLength="110.8721" x="70" y="807.9951">Infrastructure</text></g><!--cluster Bazel Build--><g id="cluster_Bazel Build"><path d="M248.5,408.5 L337.1914,408.5 A3.75,3.75 0 0 1 339.6914,411 L346.6914,430.7969 L648.5,430.7969 A2.5,2.5 0 0 1 651,433.2969 L651,494 A2.5,2.5 0 0 1 648.5,496.5 L248.5,496.5 A2.5,2.5 0 0 1 246,494 L246,411 A2.5,2.5 0 0 1 248.5,408.5 " fill="transparent" style="stroke:#000000;stroke-width:1.5;"/><line style="stroke:#000000;stroke-width:1.5;" x1="246" x2="346.6914" y1="430.7969" y2="430.7969"/><text fill="#000000" font-family="sans-serif" font-size="14" font-weight="bold" lengthAdjust="spacing" textLength="87.6914" x="250" y="423.4951">Bazel Build</text></g><!--entity TestFn--><g id="elem_TestFn"><rect fill="#F1F1F1" height="52.5938" rx="2.5" ry="2.5" style="stroke:#181818;stroke-width:0.5;" width="167.957" x="531" y="31"/><text fill="#000000" font-family="sans-serif" font-size="14" lengthAdjust="spacing" textLength="62.5078" x="541" y="53.9951">test_*.py</text><text fill="#000000" font-family="sans-serif" font-size="14" lengthAdjust="spacing" textLength="147.957" x="541" y="70.292">(pytest test function)</text></g><!--entity RC--><g id="elem_RC"><rect fill="#F1F1F1" height="52.5938" rx="2.5" ry="2.5" style="stroke:#181818;stroke-width:0.5;" width="178.2656" x="795" y="31"/><text fill="#000000" font-family="sans-serif" font-size="14" lengthAdjust="spacing" textLength="158.2656" x="805" y="53.9951">@requires_capabilities</text><text fill="#000000" font-family="sans-serif" font-size="14" lengthAdjust="spacing" textLength="113.0938" x="805" y="70.292">(optional guard)</text></g><!--entity TargetFx--><g id="elem_TargetFx"><rect fill="#F1F1F1" height="36.2969" rx="2.5" ry="2.5" style="stroke:#181818;stroke-width:0.5;" width="113.0986" x="502.5" y="156"/><text fill="#000000" font-family="sans-serif" font-size="14" lengthAdjust="spacing" textLength="93.0986" x="512.5" y="178.9951">target fixture</text></g><!--entity TargetInit--><g id="elem_TargetInit"><rect fill="#F1F1F1" height="52.5938" rx="2.5" ry="2.5" style="stroke:#181818;stroke-width:0.5;" width="142.2402" x="460" y="247"/><text fill="#000000" font-family="sans-serif" font-size="14" lengthAdjust="spacing" textLength="122.2402" x="470" y="269.9951">target_init fixture</text><text fill="#000000" font-family="sans-serif" font-size="14" lengthAdjust="spacing" textLength="92.7842" x="470" y="286.292">(plugin hook)</text></g><!--entity Target--><g id="elem_Target"><rect fill="#F1F1F1" height="150.375" rx="2.5" ry="2.5" style="stroke:#181818;stroke-width:0.5;" width="206.5664" x="22.5" y="387"/><text fill="#000000" font-family="sans-serif" font-size="14" lengthAdjust="spacing" textLength="133.8271" x="32.5" y="409.9951">Target (base class)</text><text fill="#000000" font-family="sans-serif" font-size="14" lengthAdjust="spacing" textLength="151.7168" x="32.5" y="426.292">&#9472;&#9472;&#9472;&#9472;&#9472;&#9472;&#9472;&#9472;&#9472;&#9472;&#9472;&#9472;&#9472;&#9472;&#9472;&#9472;&#9472;&#9472;</text><text fill="#000000" font-family="sans-serif" font-size="14" lengthAdjust="spacing" textLength="97.3301" x="32.5" y="442.5889">execute(cmd)</text><text fill="#000000" font-family="sans-serif" font-size="14" lengthAdjust="spacing" textLength="109.9219" x="32.5" y="458.8857">upload(src, dst)</text><text fill="#000000" font-family="sans-serif" font-size="14" lengthAdjust="spacing" textLength="129.9375" x="32.5" y="475.1826">download(src, dst)</text><text fill="#000000" font-family="sans-serif" font-size="14" lengthAdjust="spacing" textLength="57.9004" x="32.5" y="491.4795">restart()</text><text fill="#000000" font-family="sans-serif" font-size="14" lengthAdjust="spacing" textLength="135.9053" x="32.5" y="507.7764">has_capability(cap)</text><text fill="#000000" font-family="sans-serif" font-size="14" lengthAdjust="spacing" textLength="186.5664" x="32.5" y="524.0732">get_capabilities() : Set[str]</text></g><!--entity DockerPlugin--><g id="elem_DockerPlugin"><rect fill="#F1F1F1" height="101.4844" rx="2.5" ry="2.5" style="stroke:#181818;stroke-width:0.5;" width="150.4365" x="51" y="647"/><text fill="#000000" font-family="sans-serif" font-size="14" lengthAdjust="spacing" textLength="96.8242" x="61" y="669.9951">Docker Plugin</text><text fill="#000000" font-family="sans-serif" font-size="14" lengthAdjust="spacing" textLength="84.2871" x="61" y="686.292">&#9472;&#9472;&#9472;&#9472;&#9472;&#9472;&#9472;&#9472;&#9472;&#9472;</text><text fill="#000000" font-family="sans-serif" font-size="14" lengthAdjust="spacing" textLength="84.3008" x="61" y="702.5889">capabilities:</text><text fill="#000000" font-family="sans-serif" font-size="14" lengthAdjust="spacing" textLength="130.4365" x="61" y="718.8857">exec | file_transfer</text><text fill="#000000" font-family="sans-serif" font-size="14" lengthAdjust="spacing" textLength="46.9766" x="61" y="735.1826">restart</text></g><!--entity QemuPlugin--><g id="elem_QemuPlugin"><rect fill="#F1F1F1" height="101.4844" rx="2.5" ry="2.5" style="stroke:#181818;stroke-width:0.5;" width="164.2041" x="219" y="647"/><text fill="#000000" font-family="sans-serif" font-size="14" lengthAdjust="spacing" textLength="89.4961" x="229" y="669.9951">QEMU Plugin</text><text fill="#000000" font-family="sans-serif" font-size="14" lengthAdjust="spacing" textLength="84.2871" x="229" y="686.292">&#9472;&#9472;&#9472;&#9472;&#9472;&#9472;&#9472;&#9472;&#9472;&#9472;</text><text fill="#000000" font-family="sans-serif" font-size="14" lengthAdjust="spacing" textLength="84.3008" x="229" y="702.5889">capabilities:</text><text fill="#000000" font-family="sans-serif" font-size="14" lengthAdjust="spacing" textLength="110.5029" x="229" y="718.8857">ssh | sftp | exec</text><text fill="#000000" font-family="sans-serif" font-size="14" lengthAdjust="spacing" textLength="144.2041" x="229" y="735.1826">file_transfer | restart</text></g><!--entity DltPlugin--><g id="elem_DltPlugin"><rect fill="#F1F1F1" height="85.1875" rx="2.5" ry="2.5" style="stroke:#181818;stroke-width:0.5;" width="138.3916" x="401" y="655"/><text fill="#000000" font-family="sans-serif" font-size="14" lengthAdjust="spacing" textLength="74.4365" x="411" y="677.9951">DLT Plugin</text><text fill="#000000" font-family="sans-serif" font-size="14" lengthAdjust="spacing" textLength="84.2871" x="411" y="694.292">&#9472;&#9472;&#9472;&#9472;&#9472;&#9472;&#9472;&#9472;&#9472;&#9472;</text><text fill="#000000" font-family="sans-serif" font-size="14" lengthAdjust="spacing" textLength="75.667" x="411" y="710.5889">DltWindow</text><text fill="#000000" font-family="sans-serif" font-size="14" lengthAdjust="spacing" textLength="118.3916" x="411" y="726.8857">dlt_config fixture</text></g><!--entity DockerInfra--><g id="elem_DockerInfra"><path d="M74.5,830 C74.5,820 141.0093,820 141.0093,820 C141.0093,820 207.5186,820 207.5186,830 L207.5186,855.2969 C207.5186,865.2969 141.0093,865.2969 141.0093,865.2969 C141.0093,865.2969 74.5,865.2969 74.5,855.2969 L74.5,830 " fill="#F1F1F1" style="stroke:#181818;stroke-width:0.5;"/><path d="M74.5,830 C74.5,840 141.0093,840 141.0093,840 C141.0093,840 207.5186,840 207.5186,830 " fill="transparent" style="stroke:#181818;stroke-width:0.5;"/><text fill="#000000" font-family="sans-serif" font-size="14" lengthAdjust="spacing" textLength="113.0186" x="84.5" y="856.9951">Docker Daemon</text></g><!--entity QemuInfra--><g id="elem_QemuInfra"><path d="M226,830 C226,820 270.1489,820 270.1489,820 C270.1489,820 314.2979,820 314.2979,830 L314.2979,855.2969 C314.2979,865.2969 270.1489,865.2969 270.1489,865.2969 C270.1489,865.2969 226,865.2969 226,855.2969 L226,830 " fill="#F1F1F1" style="stroke:#181818;stroke-width:0.5;"/><path d="M226,830 C226,840 270.1489,840 270.1489,840 C270.1489,840 314.2979,840 314.2979,830 " fill="transparent" style="stroke:#181818;stroke-width:0.5;"/><text fill="#000000" font-family="sans-serif" font-size="14" lengthAdjust="spacing" textLength="68.2979" x="236" y="856.9951">QEMU VM</text></g><!--entity PyItfTest--><g id="elem_PyItfTest"><rect fill="#F1F1F1" height="52.5938" rx="2.5" ry="2.5" style="stroke:#181818;stroke-width:0.5;" width="141.7549" x="254" y="435.5"/><text fill="#000000" font-family="sans-serif" font-size="14" lengthAdjust="spacing" textLength="72.3652" x="264" y="458.4951">py_itf_test</text><text fill="#000000" font-family="sans-serif" font-size="14" lengthAdjust="spacing" textLength="121.7549" x="264" y="474.792">(symbolic macro)</text></g><!--entity PyItfPlugin--><g id="elem_PyItfPlugin"><rect fill="#F1F1F1" height="52.5938" rx="2.5" ry="2.5" style="stroke:#181818;stroke-width:0.5;" width="108.7783" x="533.5" y="435.5"/><text fill="#000000" font-family="sans-serif" font-size="14" lengthAdjust="spacing" textLength="88.7783" x="543.5" y="458.4951">py_itf_plugin</text><text fill="#000000" font-family="sans-serif" font-size="14" lengthAdjust="spacing" textLength="38.0557" x="543.5" y="474.792">(rule)</text></g><polygon fill="#181818" points="567.3601,155.9065,574.9075,149.5791,569.5569,151.415,567.721,146.0643,567.3601,155.9065" style="stroke:#181818;stroke-width:1;"/><path d="M602.4325,84.196 C591.7264,106.0863 579.2787,131.5372 569.9962,150.5166 " fill="transparent" style="stroke:#181818;stroke-width:1;"/><text fill="#000000" font-family="sans-serif" font-size="13" lengthAdjust="spacing" textLength="54.5645" x="596" y="116.0669">receives</text><polygon fill="#181818" points="794.578,57.5,785.578,53.5,789.578,57.5,785.578,61.5,794.578,57.5" style="stroke:#181818;stroke-width:1;"/><path d="M699.0068,57.5 C729.3754,57.5 757.7617,57.5 788.578,57.5 " fill="transparent" style="stroke:#181818;stroke-width:1;stroke-dasharray:7.0,7.0;"/><text fill="#000000" font-family="sans-serif" font-size="13" lengthAdjust="spacing" textLength="74.3818" x="710" y="49.5669">guarded by</text><polygon fill="#181818" points="538.3853,246.7834,544.7141,239.2371,539.7654,241.9776,537.0249,237.0289,538.3853,246.7834" style="stroke:#181818;stroke-width:1;"/><path d="M553.9942,192.431 C549.6527,207.5488 544.9661,223.8679 540.0414,241.0165 " fill="transparent" style="stroke:#181818;stroke-width:1;"/><text fill="#000000" font-family="sans-serif" font-size="13" lengthAdjust="spacing" textLength="81.1294" x="551" y="224.0669">delegates to</text><polygon fill="#181818" points="202.145,386.8337,211.6923,384.415,206.0755,383.7431,206.7474,378.1263,202.145,386.8337" style="stroke:#181818;stroke-width:1;"/><path d="M459.9824,286.6644 C399.3623,299.0665 311.2598,321.9819 242,360 C228.3063,367.5168 219.5301,373.1636 206.8616,383.125 " fill="transparent" style="stroke:#181818;stroke-width:1;"/><text fill="#000000" font-family="sans-serif" font-size="13" lengthAdjust="spacing" textLength="113.8071" x="343" y="339.5669">yields instance of</text><polygon fill="transparent" points="126,537.2017,120,555.2017,132,555.2017,126,537.2017" style="stroke:#181818;stroke-width:1;"/><path d="M126,555.2017 C126,590.9903 126,614.9583 126,646.8311 " fill="transparent" style="stroke:#181818;stroke-width:1;"/><text fill="#000000" font-family="sans-serif" font-size="13" lengthAdjust="spacing" textLength="76.9082" x="128" y="588.0669">implements</text><polygon fill="transparent" points="182.3457,537.267,188.4068,555.2465,197.9823,548.014,182.3457,537.267" style="stroke:#181818;stroke-width:1;"/><path d="M193.1945,551.6303 C202.453,563.8879 201.0841,562.1087 210,574 C227.9592,597.9525 247.7941,624.6272 264.3498,646.9541 " fill="transparent" style="stroke:#181818;stroke-width:1;"/><text fill="#000000" font-family="sans-serif" font-size="13" lengthAdjust="spacing" textLength="76.9082" x="226" y="588.0669">implements</text><polygon fill="#181818" points="138.7371,819.9269,141.7764,810.5588,138.2155,814.9542,133.82,811.3933,138.7371,819.9269" style="stroke:#181818;stroke-width:1;"/><path d="M131.2042,748.1131 C133.7765,772.6361 136.1217,794.9933 138.1112,813.9597 " fill="transparent" style="stroke:#181818;stroke-width:1;"/><text fill="#000000" font-family="sans-serif" font-size="13" lengthAdjust="spacing" textLength="117.3872" x="137" y="780.0669">manages lifecycle</text><polygon fill="#181818" points="274.6767,819.9269,280.4926,811.9787,275.736,815.0404,272.6742,810.2838,274.6767,819.9269" style="stroke:#181818;stroke-width:1;"/><path d="M290.2447,748.1131 C284.9285,772.6361 280.0594,795.0968 275.9479,814.0631 " fill="transparent" style="stroke:#181818;stroke-width:1;"/><text fill="#000000" font-family="sans-serif" font-size="13" lengthAdjust="spacing" textLength="117.3872" x="288" y="780.0669">manages lifecycle</text><polygon fill="#181818" points="539.1728,686.8698,548.811,688.8961,544.0619,685.8226,547.1354,681.0735,539.1728,686.8698" style="stroke:#181818;stroke-width:1;"/><path d="M643.5656,84.3062 C648.3024,89.7468 652.7286,95.7471 656,102 C670.9509,130.5774 671,140.7479 671,173 C671,173 671,173 671,584.5 C671,646.4187 603.1819,673.1594 545.0397,685.6131 " fill="transparent" style="stroke:#181818;stroke-width:1;stroke-dasharray:7.0,7.0;"/><text fill="#000000" font-family="sans-serif" font-size="13" lengthAdjust="spacing" textLength="52.6855" x="703.4688" y="332.0669">optional</text><text fill="#000000" font-family="sans-serif" font-size="13" lengthAdjust="spacing" textLength="113.623" x="673" y="347.1997">DltWindow usage</text><polygon fill="#181818" points="533.4613,462,524.4613,458,528.4613,462,524.4613,466,533.4613,462" style="stroke:#181818;stroke-width:1;"/><path d="M396.1716,462 C439.3754,462 487.6714,462 527.4613,462 " fill="transparent" style="stroke:#181818;stroke-width:1;"/><text fill="#000000" font-family="sans-serif" font-size="13" lengthAdjust="spacing" textLength="116.6255" x="406.75" y="454.0669">composes plugins</text><polygon fill="#181818" points="528.4201,300.0049,523.9363,308.7739,528.1481,304.9975,531.9245,309.2092,528.4201,300.0049" style="stroke:#181818;stroke-width:1;"/><path d="M528.0936,305.996 C527.2598,321.2955 527.7782,335.0243 532,352 C539.5992,382.5562 557.1286,414.2127 570.5666,435.4845 " fill="transparent" style="stroke:#181818;stroke-width:1;"/><text fill="#000000" font-family="sans-serif" font-size="13" lengthAdjust="spacing" textLength="55.8784" x="562.8152" y="332.0669">provides</text><text fill="#000000" font-family="sans-serif" font-size="13" lengthAdjust="spacing" textLength="113.5088" x="534" y="347.1997">target_init fixture</text><!--SRC=[rLRRZjCm47tFLmpxGefeFw0FYCkoqag0k2pmG57bEfFKMiSsjWCRBX8VmHVo9OpjDkk4eaNxrYXgqibSprmyTunbJSj0ibvt7boBdYbMk4kX3BEi1QvRenKg_yRt4i4Y9uP6OiPIOSqwwS-qyYzOY-2OSdE7LjGPanGAVMyGjFLRNHHtuVUldtJ31JeVpAFTKOxtBWpZbwn1E8b1FT4Ldi2t0kWQO8GJJz_MznQcNwdIzE4Vn9-wKzmBhMOdm5o4vKnDPHzQ_DG9YsxDcM4R8OKNw4YHDa6KIMWwPgkaulMJuaS6zFd56RbayUXXde8z10Qbu_HS25ylZEmQeTmY46Q7ii1iWmIwkFATnGHv99rT7MPT2oK6_f2wQ02sMb_ECl5puXh1diZ0DivR5XCCHrZFAOX7rq4SW7J7L6wOG-2IEJTRgTjPNYcyGjvvB7bRaPREICsgqbb-7ohdYLBfBsfAexwWNFcINhSiQv6-f5SYXYpcVLFEO0blq7-Wg3vcEHpbxsNAisYDn9RYP25w1yUHj-IyEv2iKyqlQUGcXflIj58vRCkK7VXEtI1nJHMXN8rsm3yYcVGdzSNK-Akdpz_UrhHpMxBiQc_e4VnOgP4RHCtzU8LjzmylJfzT_BSJfzA_5w7egF8aLP4ceyreUX37pivewAhQCYglZWT6EF91EmfcNrGLyoos_BwcJXcsOK0CLH3b9hon1Duz7tAKU7Be7hElA67J2LaTttvm3LeAut48uq0RcdvDfzKwB01qfhY-tMWfEBICMvsEbPVzkQ_3Dl0FKREhuD9s4ZEH0yNu6cMQNbjXtB6k0KNQZ21Tyt0Ep1_0S7X7wZBigIW-enjpBwnejdxnW5OZkBwMQMd22ZPzCT8pqHxEziXVeSI6KTB0wsBqRI8nMEW5oie1pM9QdpbjmNMHJqYOTsO-__wtt73ikE9waWKxD_DF3EmToreo2BIqxZSKY1GryfxJOZ-sinSRUXGEIqs09epJDOp5ABTVKxE12fqZLKKnr7a4FYOgsCrgcUHZ-Jiol5llYlnp12NPpNEo16FrPr65FVd0AbVy0G00]--></g></svg>